<?xml version="1.0" encoding="utf-8"?>
<!-- Generator: Adobe Illustrator 24.1.1, SVG Export Plug-In . SVG Version: 6.00 Build 0)  -->
<svg version="1.1" id="Layer_1" xmlns="http://www.w3.org/2000/svg" xmlns:xlink="http://www.w3.org/1999/xlink" x="0px" y="0px" viewBox="0 0 512 512" style="enable-background:new 0 0 512 512;" xml:space="preserve">
	<style type="text/css">
	.st0{fill:#231F20;}
</style>
	<g>
		<circle class="st0" cx="256" cy="256.1" r="38.4" />
		<path class="st0" d="M508.6,243.3C492.2,214.9,402.1,72.3,249.1,76.9C107.6,80.5,25.7,204.9,3.4,243.3c-4.6,7.9-4.6,17.7,0,25.6
		c16.1,27.9,102.4,166.3,253.1,166.3h6.4c141.5-3.6,223.6-127.9,245.7-166.3C513.1,260.9,513.1,251.2,508.6,243.3z M256,345.6
		c-49.5,0-89.6-40.1-89.6-89.6c0-49.5,40.1-89.6,89.6-89.6s89.6,40.1,89.6,89.6C345.6,305.5,305.5,345.6,256,345.6z" />
	</g>
</svg>